<svg id="svg" version="1.1" xmlns="http://www.w3.org/2000/svg" xmlns:xlink="http://www.w3.org/1999/xlink" width="400" height="400" viewBox="0, 0, 400,400"><g id="svgg"><path id="path0" d="M289.200 40.662 C 269.584 42.542,255.054 47.762,240.774 58.061 C 195.947 90.389,191.897 158.084,232.609 194.508 C 265.999 224.380,323.521 224.635,356.459 195.057 C 360.559 191.375,366.000 185.152,366.000 184.144 C 366.000 183.700,362.687 180.741,351.447 171.145 C 349.221 169.245,342.827 163.734,337.239 158.898 L 327.077 150.106 325.108 152.473 C 313.738 166.135,291.037 169.501,275.746 159.794 C 258.207 148.660,255.025 119.044,269.684 103.374 C 282.911 89.234,308.763 89.061,322.479 103.020 C 324.168 104.738,324.430 104.875,325.063 104.366 C 325.717 103.841,344.255 87.563,354.800 78.255 C 357.330 76.021,360.614 73.146,362.097 71.866 C 365.293 69.106,365.343 69.397,360.882 64.728 C 344.762 47.855,315.756 38.117,289.200 40.662 M34.400 128.600 L 34.400 214.400 62.400 214.400 L 90.400 214.400 90.400 191.600 L 90.400 168.800 103.300 168.800 C 128.880 168.799,141.397 165.899,155.526 156.697 C 193.597 131.905,191.444 71.010,151.800 51.293 C 135.473 43.173,132.222 42.810,75.900 42.804 L 34.400 42.800 34.400 128.600 M114.200 89.394 C 132.460 94.474,132.096 119.916,113.708 123.812 C 111.763 124.224,108.098 124.388,100.700 124.393 L 90.400 124.400 90.400 106.350 L 90.400 88.300 101.100 88.513 C 109.353 88.678,112.349 88.879,114.200 89.394 M34.000 250.400 L 34.000 256.400 199.800 256.400 L 365.600 256.400 365.600 250.400 L 365.600 244.400 199.800 244.400 L 34.000 244.400 34.000 250.400 M69.800 286.670 C 44.628 289.830,28.899 312.189,34.981 336.166 C 43.658 370.369,93.605 375.872,108.221 344.237 C 111.381 337.397,112.870 326.106,111.351 320.500 L 111.107 319.600 91.953 319.600 L 72.800 319.600 72.800 327.600 L 72.800 335.600 80.226 335.600 L 87.651 335.600 86.726 337.252 C 81.343 346.861,64.717 344.979,59.757 334.200 C 51.598 316.467,72.694 301.162,87.225 314.272 L 88.650 315.557 96.977 307.223 L 105.304 298.889 104.582 297.944 C 98.706 290.261,82.653 285.057,69.800 286.670 M142.178 290.494 C 141.576 292.092,140.278 295.470,139.295 298.000 C 138.312 300.530,136.348 305.741,134.932 309.580 C 133.515 313.420,130.846 320.530,129.001 325.380 C 123.072 340.972,116.783 357.625,115.603 360.857 L 114.456 364.000 127.201 364.000 L 139.946 364.000 141.585 358.800 L 143.224 353.600 155.000 353.600 L 166.776 353.600 168.430 358.800 L 170.085 364.000 183.642 364.000 C 191.099 364.000,197.200 363.938,197.200 363.863 C 197.200 363.735,195.330 358.894,183.112 327.400 C 180.466 320.580,176.636 310.680,174.600 305.400 C 172.564 300.120,170.175 294.000,169.293 291.800 L 167.687 287.800 155.481 287.694 L 143.274 287.589 142.178 290.494 M205.600 325.800 L 205.600 364.000 217.396 364.000 L 229.192 364.000 229.296 346.300 L 229.400 328.600 231.053 332.005 C 231.962 333.877,234.703 339.502,237.145 344.505 L 241.584 353.600 247.713 353.600 L 253.842 353.600 256.598 347.700 C 263.022 333.947,265.485 329.124,265.743 329.794 C 265.884 330.163,266.000 338.011,266.000 347.233 L 266.000 364.000 278.000 364.000 L 290.000 364.000 290.000 325.800 L 290.000 287.600 277.663 287.600 L 265.325 287.600 263.204 292.100 C 262.037 294.575,259.506 299.840,257.580 303.800 C 255.654 307.760,252.814 313.655,251.268 316.900 C 249.722 320.145,248.310 322.793,248.129 322.785 C 247.948 322.777,246.051 319.132,243.913 314.685 C 241.775 310.238,237.963 302.325,235.443 297.100 L 230.861 287.600 218.231 287.600 L 205.600 287.600 205.600 325.800 M305.600 325.800 L 305.600 364.000 336.000 364.000 L 366.400 364.000 366.400 353.400 L 366.400 342.800 348.400 342.800 L 330.400 342.800 330.400 338.600 L 330.400 334.400 345.000 334.400 L 359.600 334.400 359.600 325.800 L 359.600 317.200 345.000 317.200 L 330.400 317.200 330.400 313.000 L 330.400 308.800 347.800 308.800 L 365.200 308.800 365.200 298.200 L 365.200 287.600 335.400 287.600 L 305.600 287.600 305.600 325.800 M155.200 316.602 C 155.200 316.713,156.385 320.628,157.832 325.302 C 159.280 329.976,160.552 334.115,160.659 334.500 C 160.839 335.145,160.363 335.200,154.584 335.200 C 149.738 335.200,148.356 335.086,148.496 334.700 C 148.596 334.425,150.007 330.195,151.631 325.300 C 154.068 317.950,155.200 315.193,155.200 316.602 " stroke="none" fill="#040404" fill-rule="evenodd"></path><path id="path1" d="M0.000 200.000 L 0.000 400.000 200.000 400.000 L 400.000 400.000 400.000 200.000 L 400.000 0.000 200.000 0.000 L 0.000 0.000 0.000 200.000 M307.000 40.408 C 328.851 42.431,348.044 50.922,360.706 64.167 C 362.723 66.276,364.553 68.339,364.773 68.750 C 365.198 69.544,365.033 69.705,351.200 81.897 C 348.450 84.320,341.379 90.555,335.486 95.752 C 329.593 100.948,324.643 105.200,324.486 105.200 C 324.329 105.200,322.842 103.889,321.182 102.287 C 310.656 92.129,292.334 90.108,277.864 97.510 C 258.480 107.424,254.616 138.909,270.782 155.213 C 285.391 169.945,312.463 167.932,325.841 151.118 L 327.019 149.637 333.639 155.318 C 345.558 165.549,356.884 175.340,360.576 178.605 C 362.569 180.367,364.764 182.273,365.453 182.839 C 366.970 184.086,366.956 184.121,363.108 188.686 C 334.858 222.194,275.103 227.192,237.755 199.171 C 207.639 176.577,196.206 136.021,209.515 99.000 C 218.741 73.336,239.201 53.702,265.802 44.984 C 274.216 42.227,278.089 41.409,288.200 40.257 C 291.008 39.937,302.946 40.033,307.000 40.408 M127.200 43.336 C 163.565 49.374,182.536 70.359,182.586 104.600 C 182.627 133.145,168.692 153.578,142.213 163.802 C 130.660 168.262,124.024 169.200,104.016 169.200 L 90.400 169.200 90.400 192.000 L 90.400 214.800 62.400 214.800 L 34.400 214.800 34.400 128.584 L 34.400 42.367 78.700 42.503 C 118.549 42.625,123.422 42.708,127.200 43.336 M90.400 106.362 L 90.400 124.000 100.500 123.993 C 111.759 123.985,114.542 123.619,118.642 121.606 C 128.590 116.721,130.554 102.554,122.412 94.412 C 117.808 89.808,115.250 89.141,101.300 88.907 L 90.400 88.724 90.400 106.362 M365.910 250.500 L 365.800 256.600 199.800 256.600 L 33.800 256.600 33.690 250.500 L 33.579 244.400 199.800 244.400 L 366.021 244.400 365.910 250.500 M81.800 286.416 C 90.179 287.612,97.940 291.080,103.396 296.066 C 106.285 298.706,106.772 297.821,97.135 307.465 L 88.669 315.938 86.835 314.395 C 72.092 301.999,53.229 315.612,60.015 333.750 C 64.008 344.421,81.629 346.413,86.622 336.758 L 87.221 335.600 80.010 335.600 L 72.800 335.600 72.800 327.600 L 72.800 319.600 92.153 319.600 L 111.507 319.600 111.765 320.500 C 114.015 328.352,110.534 343.221,104.597 351.119 C 88.192 372.942,50.191 369.116,37.866 344.400 C 22.791 314.168,47.525 281.523,81.800 286.416 M169.409 291.100 C 170.229 293.245,171.893 297.520,173.107 300.600 C 175.212 305.943,178.352 314.051,187.975 339.000 C 190.351 345.160,192.601 350.920,192.976 351.800 C 193.840 353.826,197.600 363.614,197.600 363.835 C 197.600 363.926,191.308 364.000,183.617 364.000 L 169.634 364.000 167.998 358.794 L 166.362 353.588 154.927 353.694 L 143.492 353.800 142.000 358.800 L 140.508 363.800 127.270 363.905 L 114.032 364.011 114.571 362.505 C 114.868 361.677,115.678 359.584,116.370 357.853 C 117.063 356.122,118.860 351.352,120.364 347.253 C 121.869 343.154,124.013 337.460,125.129 334.600 C 127.283 329.083,131.357 318.241,138.282 299.600 C 140.611 293.330,142.692 287.975,142.907 287.700 C 143.205 287.319,146.235 287.200,155.608 287.200 L 167.917 287.200 169.409 291.100 M235.035 295.400 C 237.154 299.800,240.858 307.540,243.265 312.600 C 245.672 317.660,247.767 321.925,247.920 322.079 C 248.074 322.232,252.015 314.492,256.678 304.879 L 265.156 287.400 277.578 287.294 L 290.000 287.189 290.000 325.594 L 290.000 364.000 277.800 364.000 L 265.600 364.000 265.571 346.900 L 265.543 329.800 263.871 333.223 C 262.952 335.106,260.400 340.457,258.200 345.114 L 254.200 353.581 247.720 353.591 L 241.241 353.600 235.456 341.900 L 229.671 330.200 229.636 347.100 L 229.600 364.000 217.400 364.000 L 205.200 364.000 205.200 325.867 C 205.200 304.893,205.322 287.611,205.472 287.461 C 205.622 287.312,211.467 287.237,218.463 287.295 L 231.181 287.400 235.035 295.400 M365.507 298.100 L 365.613 308.800 348.207 308.800 L 330.800 308.800 330.800 313.000 L 330.800 317.200 345.400 317.200 L 360.000 317.200 360.000 325.800 L 360.000 334.400 345.400 334.400 L 330.800 334.400 330.800 338.396 L 330.800 342.392 348.700 342.496 L 366.600 342.600 366.707 353.300 L 366.813 364.000 336.007 364.000 L 305.200 364.000 305.200 325.867 C 305.200 304.893,305.321 287.612,305.469 287.464 C 305.617 287.316,319.162 287.241,335.569 287.297 L 365.400 287.400 365.507 298.100 M151.868 325.593 C 150.390 330.208,149.076 334.258,148.948 334.593 C 148.746 335.119,149.501 335.200,154.600 335.200 C 159.143 335.200,160.442 335.086,160.296 334.700 C 160.192 334.425,158.970 330.375,157.580 325.700 C 156.191 321.025,154.942 317.200,154.805 317.200 C 154.668 317.200,153.347 320.977,151.868 325.593 " stroke="none" fill="#fbfbfb" fill-rule="evenodd"></path><path id="path2" d="M289.900 40.282 C 290.395 40.378,291.205 40.378,291.700 40.282 C 292.195 40.187,291.790 40.109,290.800 40.109 C 289.810 40.109,289.405 40.187,289.900 40.282 M301.900 40.282 C 302.395 40.378,303.205 40.378,303.700 40.282 C 304.195 40.187,303.790 40.109,302.800 40.109 C 301.810 40.109,301.405 40.187,301.900 40.282 M55.469 42.700 C 67.167 42.759,86.427 42.759,98.269 42.700 C 110.111 42.641,100.540 42.593,77.000 42.593 C 53.460 42.593,43.771 42.641,55.469 42.700 M168.000 63.400 C 168.746 64.170,169.447 64.800,169.557 64.800 C 169.667 64.800,169.146 64.170,168.400 63.400 C 167.654 62.630,166.953 62.000,166.843 62.000 C 166.733 62.000,167.254 62.630,168.000 63.400 M229.785 66.900 L 227.800 69.000 229.900 67.015 C 231.851 65.171,232.183 64.800,231.885 64.800 C 231.822 64.800,230.877 65.745,229.785 66.900 M292.505 93.087 C 293.114 93.179,294.014 93.177,294.505 93.082 C 294.997 92.987,294.500 92.911,293.400 92.914 C 292.300 92.917,291.897 92.995,292.505 93.087 M297.705 93.087 C 298.314 93.179,299.214 93.177,299.705 93.082 C 300.197 92.987,299.700 92.911,298.600 92.914 C 297.500 92.917,297.097 92.995,297.705 93.087 M329.375 100.900 L 328.200 102.200 329.500 101.025 C 330.215 100.379,330.800 99.794,330.800 99.725 C 330.800 99.416,330.470 99.688,329.375 100.900 M321.600 102.600 C 322.346 103.370,323.047 104.000,323.157 104.000 C 323.267 104.000,322.746 103.370,322.000 102.600 C 321.254 101.830,320.553 101.200,320.443 101.200 C 320.333 101.200,320.854 101.830,321.600 102.600 M204.493 120.400 C 204.493 121.170,204.575 121.485,204.676 121.100 C 204.776 120.715,204.776 120.085,204.676 119.700 C 204.575 119.315,204.493 119.630,204.493 120.400 M204.131 126.200 C 204.133 127.740,204.205 128.321,204.292 127.491 C 204.379 126.661,204.377 125.401,204.289 124.691 C 204.200 123.981,204.129 124.660,204.131 126.200 M95.123 124.299 C 97.831 124.368,102.151 124.368,104.723 124.299 C 107.295 124.229,105.080 124.172,99.800 124.173 C 94.520 124.173,92.415 124.230,95.123 124.299 M260.531 129.000 C 260.533 130.540,260.605 131.121,260.692 130.291 C 260.779 129.461,260.777 128.201,260.689 127.491 C 260.600 126.781,260.529 127.460,260.531 129.000 M204.131 133.800 C 204.133 135.340,204.205 135.921,204.292 135.091 C 204.379 134.261,204.377 133.001,204.289 132.291 C 204.200 131.581,204.129 132.260,204.131 133.800 M204.493 139.600 C 204.493 140.370,204.575 140.685,204.676 140.300 C 204.776 139.915,204.776 139.285,204.676 138.900 C 204.575 138.515,204.493 138.830,204.493 139.600 M165.188 149.100 L 162.600 151.800 165.300 149.212 C 166.785 147.788,168.000 146.573,168.000 146.512 C 168.000 146.217,167.593 146.592,165.188 149.100 M117.105 169.083 C 117.602 169.179,118.322 169.175,118.705 169.075 C 119.087 168.975,118.680 168.896,117.800 168.901 C 116.920 168.905,116.607 168.987,117.105 169.083 M358.989 192.900 L 356.200 195.800 359.100 193.011 C 361.794 190.420,362.183 190.000,361.889 190.000 C 361.828 190.000,360.523 191.305,358.989 192.900 M33.784 250.500 L 33.800 256.600 199.800 256.600 L 365.800 256.600 365.816 250.500 L 365.832 244.399 365.706 250.400 L 365.579 256.400 199.800 256.400 L 34.021 256.400 33.894 250.400 L 33.768 244.399 33.784 250.500 M70.705 286.283 C 71.202 286.379,71.922 286.375,72.305 286.275 C 72.687 286.175,72.280 286.096,71.400 286.101 C 70.520 286.105,70.207 286.187,70.705 286.283 M77.905 286.283 C 78.402 286.379,79.122 286.375,79.505 286.275 C 79.887 286.175,79.480 286.096,78.600 286.101 C 77.720 286.105,77.407 286.187,77.905 286.283 M149.300 287.499 C 152.765 287.566,158.435 287.566,161.900 287.499 C 165.365 287.433,162.530 287.378,155.600 287.378 C 148.670 287.378,145.835 287.433,149.300 287.499 M205.386 287.694 C 205.280 287.973,205.241 305.300,205.299 326.200 L 205.404 364.200 205.502 325.900 L 205.600 287.600 218.367 287.600 C 226.686 287.600,231.204 287.743,231.337 288.010 C 231.449 288.236,231.494 288.190,231.437 287.910 C 231.286 287.166,205.669 286.954,205.386 287.694 M265.061 287.500 C 264.959 287.665,268.593 287.754,273.138 287.698 C 288.697 287.506,290.195 287.371,277.724 287.286 C 270.862 287.238,265.164 287.335,265.061 287.500 M305.385 287.697 C 305.280 287.974,305.241 305.300,305.299 326.200 L 305.404 364.200 305.502 325.900 L 305.600 287.600 335.393 287.600 L 365.187 287.600 365.303 298.200 L 365.420 308.800 365.410 298.100 L 365.400 287.400 335.488 287.297 C 311.771 287.216,305.537 287.299,305.385 287.697 M103.583 296.500 C 105.241 298.266,105.600 298.584,105.600 298.283 C 105.600 298.219,104.745 297.364,103.700 296.383 L 101.800 294.600 103.583 296.500 M102.788 301.500 L 100.200 304.200 102.900 301.612 C 104.385 300.188,105.600 298.973,105.600 298.912 C 105.600 298.617,105.193 298.992,102.788 301.500 M330.548 312.800 C 330.548 315.110,330.614 316.055,330.695 314.900 C 330.776 313.745,330.776 311.855,330.695 310.700 C 330.614 309.545,330.548 310.490,330.548 312.800 M251.072 316.219 C 250.132 318.189,250.264 318.524,251.247 316.662 C 251.693 315.816,251.987 315.054,251.901 314.967 C 251.814 314.881,251.441 315.444,251.072 316.219 M33.344 326.000 C 33.344 328.090,33.412 328.945,33.494 327.900 C 33.576 326.855,33.576 325.145,33.494 324.100 C 33.412 323.055,33.344 323.910,33.344 326.000 M112.146 327.000 C 112.147 329.200,112.214 330.049,112.295 328.887 C 112.376 327.724,112.376 325.924,112.293 324.887 C 112.211 323.849,112.145 324.800,112.146 327.000 M58.493 328.400 C 58.493 329.170,58.575 329.485,58.676 329.100 C 58.776 328.715,58.776 328.085,58.676 327.700 C 58.575 327.315,58.493 327.630,58.493 328.400 M229.200 346.600 C 229.200 356.243,229.286 364.047,229.392 363.941 C 229.659 363.674,229.683 329.550,229.416 329.283 C 229.297 329.164,229.200 336.957,229.200 346.600 M330.577 338.400 L 330.600 342.600 348.493 342.704 L 366.387 342.808 366.503 353.404 L 366.620 364.000 366.610 353.300 L 366.600 342.600 348.714 342.496 L 330.828 342.392 330.691 338.296 L 330.554 334.200 330.577 338.400 M81.200 341.600 C 80.430 342.022,79.944 342.374,80.120 342.383 C 80.544 342.405,82.800 341.232,82.800 340.990 C 82.800 340.728,82.777 340.737,81.200 341.600 M100.987 354.900 L 98.600 357.400 101.100 355.013 C 102.475 353.699,103.600 352.574,103.600 352.513 C 103.600 352.217,103.205 352.578,100.987 354.900 M72.500 365.491 C 73.325 365.578,74.675 365.578,75.500 365.491 C 76.325 365.405,75.650 365.334,74.000 365.334 C 72.350 365.334,71.675 365.405,72.500 365.491 " stroke="none" fill="#a0a0a0" fill-rule="evenodd"></path><path id="path3" d="M293.100 40.282 C 293.595 40.378,294.405 40.378,294.900 40.282 C 295.395 40.187,294.990 40.109,294.000 40.109 C 293.010 40.109,292.605 40.187,293.100 40.282 M298.700 40.282 C 299.195 40.378,300.005 40.378,300.500 40.282 C 300.995 40.187,300.590 40.109,299.600 40.109 C 298.610 40.109,298.205 40.187,298.700 40.282 M204.093 130.000 C 204.093 130.770,204.175 131.085,204.276 130.700 C 204.376 130.315,204.376 129.685,204.276 129.300 C 204.175 128.915,204.093 129.230,204.093 130.000 M73.907 286.290 C 74.626 286.379,75.706 286.377,76.307 286.286 C 76.908 286.195,76.320 286.122,75.000 286.124 C 73.680 286.126,73.188 286.201,73.907 286.290 M98.975 305.300 L 97.800 306.600 99.100 305.425 C 100.312 304.330,100.584 304.000,100.275 304.000 C 100.206 304.000,99.621 304.585,98.975 305.300 M93.781 310.500 L 92.200 312.200 93.900 310.619 C 95.481 309.148,95.784 308.800,95.481 308.800 C 95.416 308.800,94.651 309.565,93.781 310.500 " stroke="none" fill="#7c7c7c" fill-rule="evenodd"></path><path id="path4" d="M296.100 40.276 C 296.485 40.376,297.115 40.376,297.500 40.276 C 297.885 40.175,297.570 40.093,296.800 40.093 C 296.030 40.093,295.715 40.175,296.100 40.276 M288.305 40.683 C 288.802 40.779,289.522 40.775,289.905 40.675 C 290.287 40.575,289.880 40.496,289.000 40.501 C 288.120 40.505,287.807 40.587,288.305 40.683 M303.905 40.683 C 304.402 40.779,305.122 40.775,305.505 40.675 C 305.887 40.575,305.480 40.496,304.600 40.501 C 303.720 40.505,303.407 40.587,303.905 40.683 M359.800 63.600 C 360.659 64.480,361.452 65.200,361.562 65.200 C 361.672 65.200,361.059 64.480,360.200 63.600 C 359.341 62.720,358.548 62.000,358.438 62.000 C 358.328 62.000,358.941 62.720,359.800 63.600 M230.000 67.000 C 228.361 68.650,227.110 70.000,227.220 70.000 C 227.330 70.000,228.761 68.650,230.400 67.000 C 232.039 65.350,233.290 64.000,233.180 64.000 C 233.070 64.000,231.639 65.350,230.000 67.000 M354.975 78.100 L 353.800 79.400 355.100 78.225 C 355.815 77.579,356.400 76.994,356.400 76.925 C 356.400 76.616,356.070 76.888,354.975 78.100 M94.923 88.699 C 97.520 88.769,101.660 88.768,104.123 88.698 C 106.585 88.628,104.460 88.571,99.400 88.572 C 94.340 88.572,92.325 88.629,94.923 88.699 M325.185 104.218 C 324.903 104.558,324.386 104.728,324.036 104.595 C 323.523 104.400,323.498 104.451,323.904 104.861 C 324.312 105.271,324.579 105.199,325.293 104.484 C 325.780 103.998,326.070 103.600,325.938 103.600 C 325.806 103.600,325.467 103.878,325.185 104.218 M204.493 123.600 C 204.493 124.370,204.575 124.685,204.676 124.300 C 204.776 123.915,204.776 123.285,204.676 122.900 C 204.575 122.515,204.493 122.830,204.493 123.600 M204.493 136.400 C 204.493 137.170,204.575 137.485,204.676 137.100 C 204.776 136.715,204.776 136.085,204.676 135.700 C 204.575 135.315,204.493 135.630,204.493 136.400 M270.400 155.400 C 271.595 156.610,272.663 157.600,272.773 157.600 C 272.883 157.600,271.995 156.610,270.800 155.400 C 269.605 154.190,268.537 153.200,268.427 153.200 C 268.317 153.200,269.205 154.190,270.400 155.400 M295.100 165.482 C 295.595 165.578,296.405 165.578,296.900 165.482 C 297.395 165.387,296.990 165.309,296.000 165.309 C 295.010 165.309,294.605 165.387,295.100 165.482 M118.705 168.683 C 119.202 168.779,119.922 168.775,120.305 168.675 C 120.687 168.575,120.280 168.496,119.400 168.501 C 118.520 168.505,118.207 168.587,118.705 168.683 M96.500 169.099 C 99.965 169.166,105.635 169.166,109.100 169.099 C 112.565 169.033,109.730 168.978,102.800 168.978 C 95.870 168.978,93.035 169.033,96.500 169.099 M228.400 191.000 C 229.146 191.770,229.847 192.400,229.957 192.400 C 230.067 192.400,229.546 191.770,228.800 191.000 C 228.054 190.230,227.353 189.600,227.243 189.600 C 227.133 189.600,227.654 190.230,228.400 191.000 M48.300 214.700 C 56.055 214.761,68.745 214.761,76.500 214.700 C 84.255 214.639,77.910 214.589,62.400 214.589 C 46.890 214.589,40.545 214.639,48.300 214.700 M289.505 217.083 C 290.002 217.179,290.722 217.175,291.105 217.075 C 291.487 216.975,291.080 216.896,290.200 216.901 C 289.320 216.905,289.007 216.987,289.505 217.083 M298.705 217.083 C 299.202 217.179,299.922 217.175,300.305 217.075 C 300.687 216.975,300.280 216.896,299.400 216.901 C 298.520 216.905,298.207 216.987,298.705 217.083 M101.200 294.525 C 101.200 294.594,101.785 295.179,102.500 295.825 L 103.800 297.000 102.625 295.700 C 101.530 294.488,101.200 294.216,101.200 294.525 M96.575 307.700 L 95.400 309.000 96.700 307.825 C 97.912 306.730,98.184 306.400,97.875 306.400 C 97.806 306.400,97.221 306.985,96.575 307.700 M73.700 309.476 C 74.085 309.576,74.715 309.576,75.100 309.476 C 75.485 309.375,75.170 309.293,74.400 309.293 C 73.630 309.293,73.315 309.375,73.700 309.476 M90.400 313.800 C 89.428 314.790,88.723 315.600,88.833 315.600 C 88.943 315.600,89.828 314.790,90.800 313.800 C 91.772 312.810,92.477 312.000,92.367 312.000 C 92.257 312.000,91.372 312.810,90.400 313.800 M359.770 325.600 C 359.770 330.330,359.828 332.265,359.898 329.900 C 359.969 327.535,359.969 323.665,359.898 321.300 C 359.828 318.935,359.770 320.870,359.770 325.600 M58.120 326.400 C 58.120 327.610,58.195 328.105,58.287 327.500 C 58.378 326.895,58.378 325.905,58.287 325.300 C 58.195 324.695,58.120 325.190,58.120 326.400 M265.783 347.000 C 265.783 356.460,265.836 360.273,265.900 355.473 C 265.964 350.673,265.963 342.933,265.899 338.273 C 265.836 333.613,265.783 337.540,265.783 347.000 M84.575 339.700 L 83.400 341.000 84.700 339.825 C 85.912 338.730,86.184 338.400,85.875 338.400 C 85.806 338.400,85.221 338.985,84.575 339.700 M73.500 343.482 C 73.995 343.578,74.805 343.578,75.300 343.482 C 75.795 343.387,75.390 343.309,74.400 343.309 C 73.410 343.309,73.005 343.387,73.500 343.482 " stroke="none" fill="#747474" fill-rule="evenodd"></path></g></svg>