<?xml version="1.0" encoding="utf-8"?>
<svg width="753.13306" height="231.06007" id="svg4237" version="1.0" xmlns="http://www.w3.org/2000/svg">
  <g id="layer1" transform="translate(2.322326,-490.7257)">
    <path style="fill:black;fill-rule:nonzero;stroke:none" d="M -2.322 490.726 L 218.219 490.726 L 218.219 556.126 L 6.393 556.126 L 6.393 612.81 L -2.322 612.81 L -2.322 547.41 L 209.504 547.41 L 209.504 499.441 L -2.322 499.441 L -2.322 490.726" class="ps02" id="path6945"/>
    <path style="fill:black;fill-rule:nonzero;stroke:none" d="M 493.714 556.126 L 493.714 612.81 L 484.999 612.81 L 484.999 547.41 L 696.825 547.41 L 696.825 499.441 L 484.999 499.441 L 484.999 490.726 L 705.54 490.726 L 705.54 556.126 L 493.714 556.126" class="ps02" id="path6947"/>
    <path style="fill:black;fill-rule:nonzero;stroke:none" d="M 330.669 490.726 L 330.669 604.095 L 218.219 604.095 L 218.219 612.81 L 339.868 612.81 L 339.868 499.441 L 452.317 499.441 L 452.317 490.726 L 330.669 490.726" class="ps02" id="path6949"/>
  </g>
</svg>