<svg xmlns="http://www.w3.org/2000/svg" height="800" width="1200" viewBox="-19.9185 -5.418 172.627 32.508"><path d="M113.29.481v17.018L100.79.468l-2.1-.003v20.724h2.3V4.539l12.3 16.66h2.3V.481zM86.72 0c-5.826 0-9.898 4.456-9.898 10.83 0 6.389 4.072 10.84 9.898 10.84 5.82 0 9.879-4.455 9.879-10.84C96.599 4.451 92.54 0 86.72 0m0 19.48c-4.437 0-7.549-3.557-7.549-8.649 0-5.088 3.111-8.645 7.549-8.645 4.432 0 7.523 3.557 7.523 8.645.0001 5.092-3.092 8.649-7.523 8.649m46.07 1.719v-2.03h-12.3v-7.66h11.4v-2.03h-11.4V2.494h12.2V.467h-14.5v20.732z" fill="#6b6b6b"/><g fill="#177d3e"><path d="M65.09 10.359l8 10.86h-2.8l-6.6-8.99-6.6 8.99h-2.7l7.9-10.86-7.2-9.878h2.7l5.9 8.058 5.9-8.058h2.8z"/><path d="M46.6.002c-5.824 0-9.896 4.456-9.896 10.83 0 6.389 4.071 10.84 9.896 10.84 5.82 0 9.879-4.453 9.879-10.84 0-6.379-4.059-10.83-9.879-10.83m0 19.48c-4.438 0-7.546-3.557-7.546-8.648 0-5.088 3.108-8.644 7.546-8.644 4.431 0 7.523 3.556 7.523 8.644 0 5.092-3.093 8.648-7.523 8.648M9.35 12.229l6.62 8.99h2.73l-7.98-10.86L18 .481h-2.73L9.34 8.539 3.42.481H.7l7.27 9.878L0 21.219h2.73z"/><path d="M33.86 11.14c-.4326-.3687-.9023-.6538-1.358-.8647 1.505-.8169 2.492-2.361 2.492-4.152 0-1.327-.4893-5.641-6.741-5.641h-8.421v8.94h-2.806c-.3652.4741-1.19 1.613-1.506 2.081h4.312v9.715l8.421.001c4.562 0 7.396-2.317 7.396-6.054 0-1.633-.6172-3.021-1.789-4.025m-11.7-8.495h6.093c1.65 0 4.411.4106 4.411 3.296 0 2.181-1.609 3.481-4.411 3.481H22.16zm6.093 16.41H22.16v-7.55h6.093c2.311 0 5.074.6382 5.074 3.614 0 3.422-3.178 3.936-5.074 3.936"/></g></svg>